# xmcd
#
# Track frame offsets:
# 150
# 17712
# 31435
# 42205
# 52473
# 63145
# 80348
# 95625
# 110463
# 123587
# 145015
#
# Disc length: 2114 seconds
#
#
# Revision: 0
# Processed by: cddbd v1.5.1PL2 Copyright (c) Steve Scherf et al.
# Submitted via: FreeRIP 2.70 
#
DISCID=9508400b
DTITLE=The Flying Burrito Bros - Last Of The Red Hot Burritos
DYEAR=1972
DGENRE=Country Rock
TTITLE0=Devil In Disguise
TTITLE1=Six Days On The Road
TTITLE2=My Uncle
TTITLE3=Dixie Breakdown
TTITLE4=Don't Let Your Deal Go Down
TTITLE5=Orange Blossom Special
TTITLE6=Aint That A Lot Of Love
TTITLE7=High Fashion Queen
TTITLE8=Don't Fight It
TTITLE9=Hot Burrito #2
TTITLE10=Losing Game
EXTD=
EXTT0=
EXTT1=
EXTT2=
EXTT3=
EXTT4=
EXTT5=
EXTT6=
EXTT7=
EXTT8=
EXTT9=
EXTT10=
PLAYORDER=
